<svg width="83" height="20" viewBox="0 0 83 20" fill="none" xmlns="http://www.w3.org/2000/svg">
<path d="M15.7075 4.75977H26.1564V15.527H22.9008V7.29854H18.9638V15.527H15.7075V4.75977ZM63.4513 9.86396V4.75977H60.1538V15.527H61.5295L67.3621 10.4857V15.527H70.638V4.75977H69.344L63.4513 9.86396ZM71.9313 15.527H75.2085V4.75977H71.9313V15.527ZM78.9428 10.0359L82.7843 4.7604H78.9644L75.2733 10.0359L79.1801 15.527H83.0001L78.9428 10.0359ZM35.3858 4.75977L32.6448 11.5869L30.0548 4.75977H26.5801L30.961 15.527L29.0642 20H32.4532L37.8555 7.29283H41.2059V15.527H44.4818V7.3125H47.7623V4.75977H35.3858ZM55.5832 8.56666H51.6829V4.7604H48.3854V15.5277H51.6829V11.0978H55.5832V15.5277H58.8794V4.75977H55.5832V8.56666Z" fill="white"/>
<path d="M11.5585 5.40286C10.7627 4.30668 9.63938 3.84804 8.82793 3.69135L8.83316 3.69198L2.21074 2.43531C3.67018 0.934415 5.7253 0 8.00797 0C10.713 0 13.1101 1.32201 14.5604 3.35958L11.5585 5.40286ZM11.5585 10.4448C10.7627 11.5409 9.63938 11.9996 8.82793 12.1556H8.83316L2.21074 13.4117C3.66953 14.9119 5.7253 15.847 8.00797 15.847C10.713 15.847 13.1101 14.525 14.5604 12.4874L11.5585 10.4448ZM3.83692 8.55754H0.00130774C0.10135 10.0331 0.610717 11.3157 1.41759 12.4576L5.76911 11.6399C4.67257 10.9865 3.98208 9.92141 3.83692 8.55754ZM5.69261 4.27877L1.39667 3.47249C0.60287 4.608 0.100042 5.87228 0 7.31355H3.83692C3.97816 5.98203 4.64118 4.93914 5.69261 4.27877Z" fill="white"/>
</svg>
